<?xml version="1.0" standalone="no"?>
<!DOCTYPE svg PUBLIC "-//W3C//DTD SVG 20010904//EN"
 "http://www.w3.org/TR/2001/REC-SVG-20010904/DTD/svg10.dtd">
<svg version="1.0" xmlns="http://www.w3.org/2000/svg"
 width="360.000000pt" height="360.000000pt" viewBox="0 0 360.000000 360.000000"
 preserveAspectRatio="xMidYMid meet">
<metadata>
Created by potrace 1.14, written by Peter Selinger 2001-2017
</metadata>
<g transform="translate(0.000000,360.000000) scale(0.100000,-0.100000)"
fill="#000000" stroke="none">
<path d="M1630 3403 c-300 -45 -518 -124 -722 -260 -363 -243 -602 -593 -700
-1028 -25 -114 -36 -424 -19 -547 28 -196 100 -412 189 -567 60 -104 164 -251
178 -251 5 0 23 13 38 29 l27 28 -60 84 c-285 398 -366 896 -220 1357 187 590
728 1018 1347 1065 l62 5 0 -48 0 -47 -106 -12 c-334 -38 -618 -175 -859 -416
-195 -196 -328 -440 -390 -716 -26 -116 -32 -393 -11 -521 41 -248 155 -499
312 -683 l56 -67 -68 -70 -69 -70 50 -45 c163 -148 280 -228 440 -304 445
-211 945 -211 1392 1 407 193 728 564 857 992 53 176 61 238 61 473 0 193 -3
234 -23 329 -122 570 -529 1028 -1076 1211 -112 38 -282 75 -341 75 -35 0 -35
0 -35 -44 l0 -44 48 -6 c523 -73 963 -388 1187 -851 278 -574 175 -1254 -259
-1713 -222 -234 -478 -380 -795 -454 -137 -31 -421 -36 -576 -10 -266 46 -504
154 -712 324 -40 33 -73 62 -73 66 0 4 14 22 31 40 l30 33 48 -43 c26 -24 69
-58 94 -76 l47 -33 20 33 c11 18 20 38 20 43 0 6 -31 34 -69 63 -95 73 -228
214 -295 315 -123 185 -199 401 -222 630 l-6 67 94 0 95 0 7 108 c11 182 64
361 153 514 42 73 75 118 155 209 l57 66 -65 64 -65 64 46 43 c153 139 393
252 631 298 121 23 349 23 468 0 189 -37 368 -109 514 -209 45 -32 86 -57 91
-57 4 0 20 14 36 30 34 35 41 26 -91 115 -186 126 -418 207 -661 231 l-73 7 0
93 0 94 -97 -1 c-54 -1 -109 -3 -123 -6z m-776 -809 c-152 -190 -241 -383
-279 -601 -8 -47 -15 -103 -15 -125 l0 -39 -47 3 -48 3 3 70 c11 244 140 554
311 747 l42 47 31 -34 30 -35 -28 -36z"/>
<path d="M1665 3024 c-165 -25 -293 -63 -420 -127 -67 -33 -104 -56 -209 -129
-9 -6 42 -68 57 -68 4 0 35 19 69 41 141 96 352 173 511 186 l77 6 0 -46 0
-46 -47 -6 c-27 -3 -88 -15 -138 -26 -407 -89 -722 -418 -801 -835 -22 -121
-15 -335 16 -449 50 -184 146 -351 279 -484 166 -166 400 -279 619 -298 l72
-6 0 -50 0 -50 -68 6 c-382 36 -745 291 -913 642 -45 93 -89 230 -104 318 -6
37 -6 37 -54 37 l-49 0 15 -77 c58 -314 255 -620 508 -792 44 -30 84 -58 89
-62 5 -4 -10 -41 -33 -83 -22 -41 -41 -79 -41 -84 0 -13 183 -96 279 -126 139
-44 251 -60 421 -60 180 0 294 18 447 69 122 41 240 98 349 171 112 74 115 78
77 116 l-31 30 -78 -55 c-156 -108 -361 -192 -544 -222 -177 -28 -424 -15
-580 31 -93 27 -210 75 -210 85 0 8 27 67 35 77 1 1 36 -11 77 -28 42 -16 113
-39 159 -50 95 -23 308 -46 333 -37 13 5 16 23 16 102 l0 95 38 0 c93 0 266
47 377 103 274 137 474 383 555 682 31 114 38 328 16 449 -55 288 -219 534
-463 693 -119 78 -255 132 -396 157 l-38 7 3 -46 3 -47 85 -22 c119 -32 196
-66 293 -129 340 -222 502 -630 407 -1025 -68 -283 -268 -524 -534 -647 -134
-62 -221 -80 -396 -80 -131 0 -168 4 -239 23 -167 46 -295 119 -424 241 -133
127 -223 283 -269 468 -30 122 -30 333 0 445 94 348 337 597 682 700 36 11
116 22 180 26 l115 7 3 94 3 94 77 -6 c234 -19 508 -151 685 -331 153 -155
251 -330 303 -541 152 -619 -242 -1249 -869 -1389 l-102 -23 -3 -47 -3 -46 43
6 c92 14 233 55 317 92 97 43 236 130 300 188 l42 37 26 -24 c15 -13 46 -44
71 -69 l44 -45 55 60 c102 113 184 230 243 350 99 203 138 347 147 553 l6 132
-97 0 -96 0 0 39 c0 62 -28 204 -60 304 -46 145 -128 292 -226 410 l-43 52 32
33 32 34 44 -49 c144 -158 263 -412 302 -645 l13 -78 48 0 48 0 -6 33 c-43
260 -112 441 -236 626 -56 82 -183 230 -205 238 -9 4 -39 -18 -79 -58 l-64
-63 -27 22 c-183 146 -358 232 -568 278 -69 15 -321 27 -380 18z m1470 -1356
c-26 -276 -145 -555 -318 -753 l-36 -40 -33 33 c-24 23 -30 36 -23 46 6 7 31
39 56 71 133 164 238 425 255 636 l7 79 49 0 50 0 -7 -72z"/>
<path d="M1707 2489 c-159 -21 -285 -85 -408 -208 -73 -73 -93 -100 -132 -181
-59 -123 -72 -181 -72 -315 1 -203 63 -353 205 -495 142 -142 303 -210 500
-210 197 0 358 68 500 210 142 142 204 292 205 495 0 134 -13 192 -72 315 -39
82 -58 107 -137 185 -73 73 -108 99 -176 133 -131 64 -276 89 -413 71z m174
-424 c54 -29 108 -123 95 -166 -2 -8 -7 -26 -10 -41 -4 -15 -20 -43 -37 -62
l-30 -35 26 -138 c14 -76 28 -148 30 -160 l5 -23 -160 0 -160 0 5 23 c2 12 16
84 30 160 l26 138 -30 35 c-17 19 -33 47 -37 62 -3 15 -8 33 -10 41 -8 26 18
93 49 127 56 61 137 75 208 39z"/>
</g>
</svg>
